<svg width="60" height="60" viewBox="0 0 60 60" fill="none" xmlns="http://www.w3.org/2000/svg">
<rect width="60" height="60" rx="8" fill="#0A66C2"/>
<path d="M14 22H21V46H14V22Z" fill="white"/>
<path d="M17.5 19C19.433 19 21 17.433 21 15.5C21 13.567 19.433 12 17.5 12C15.567 12 14 13.567 14 15.5C14 17.433 15.567 19 17.5 19Z" fill="white"/>
<path d="M25 22H31.8V25.2H32.6C33.6 23.4 35.8 21.8 39 21.8C45.2 21.8 46 25.4 46 30.2V46H39V31.8C39 29.2 38.8 27 36 27C33 27 32.4 29.4 32.4 31.6V46H25V22Z" fill="white"/>
</svg>